<svg id="Layer_1" data-name="Layer 1" xmlns="http://www.w3.org/2000/svg" viewBox="0 0 414.69 118.48"><defs><style>.cls-1,.cls-2{fill:#012169;}.cls-2{fill-rule:evenodd;}</style></defs><title>bofa_merrill_lo1_rgb_h</title><path class="cls-1" d="M187.53 101.75h-4.84l-4.16 8.63-4.05-8.63h-4.95v16.26h3.69v-11.1l5.31 11.1 5.26-11.05v11.05h3.74v-16.26zM26.05 118.01h7.21c3.63 0 5.37-1.84 5.37-4.47a3.86 3.86 0 0 0-3.47-4.05 3.42 3.42 0 0 0 3-3.58c0-2.32-1.74-4.16-5.37-4.16h-6.74v16.26zm51.9-16.26h-3.79v10.68l-6.89-10.68h-4.22v16.26h3.79v-10.68l6.89 10.68h4.21v-16.26zm141.62 16.26h4.42l-4.05-6.89a4.2 4.2 0 0 0 3.26-4.47c0-2.95-1.79-4.89-5.84-4.89h-6.32v16.26h4v-6.38h.95zm-167-16.26h-4.16l-6.06 16.26h4.1l1.11-3.32h5.9l1.1 3.32h4.21zm304.28 5.21c0-3.26-1.79-5.21-5.84-5.21h-6.32v16.26h4v-5.84h2.32c4.05 0 5.84-2.1 5.84-5.21zm-263 11.05l-5.37-8.21v8.21h-4.05v-16.26h4.05v7.79l5.11-7.79h4.52l-5.37 7.79 5.84 8.47h-4.74zm100.3 0h11.2v-3.21h-7.16v-3.56h5.63v-3.1h-5.63v-3.26h6.58l.74-3.16h-11.39v16.26zm57.76-4.32a7.72 7.72 0 0 1-4.26 1.42 5.13 5.13 0 0 1-.1-10.26 6.84 6.84 0 0 1 4.16 1.42v-3.73a9.61 9.61 0 0 0-4.68-1.05c-5.42 0-8.84 3.74-8.84 8.47s3.37 8.52 8.89 8.52a10.24 10.24 0 0 0 4.84-1.05v-3.74zm152.82 4.32h4.05v-6.05l5.94-10.21h-4.58l-3.31 6.32-3.37-6.32h-4.63l5.89 10.1v6.16zm-275 0h4.05v-6.37h5.16v-3.16h-5.16v-3.58h6.21l.74-3.16h-11V118zm99.25 0h4v-16.26h-4v16.26zm-196.63-6.9a1.94 1.94 0 0 1 2.21 2c0 1.42-.9 2-2.21 2h-2.3v-4h2.3zm318-6.32c1.58 0 2.42.69 2.42 2.11s-.84 2.16-2.42 2.16h-1.63v-4.26h1.63zm-133.66 0c1.58 0 2.42.69 2.42 2s-.84 2.1-2.42 2.1h-1.63v-4.1h1.63zm-184.78-.21c1.37 0 2.21.58 2.21 1.89s-.84 1.89-2.21 1.89h-1.86v-3.79h1.84zm18.58 1.05l1.95 5.94h-3.89zm-40.2-3.89H6.13L.03 118h4.1l1.11-3.32h5.9l1.11 3.32h4.21zm-2.1 3.89l1.95 5.94H6.25zm108.46 12.75c-5.31 0-8.74-3.74-8.74-8.53s3.42-8.47 8.74-8.47 8.74 3.73 8.74 8.47-3.42 8.53-8.74 8.53zm0-3.32c2.53 0 4.42-2 4.42-5.21s-1.89-5.16-4.42-5.16-4.42 1.95-4.42 5.16 1.89 5.21 4.42 5.21zm41.79-13.31h-4.16l-6.1 16.26h4.1l1.11-3.32h5.89l1.11 3.32h4.21zm-2.09 3.89l1.95 5.94h-3.95zm109.52-3.89h-4.16l-6.11 16.26h4.1l1.11-3.32h5.89l1.1 3.32h4.21zm-2.1 3.89l1.95 5.94h-3.89zm30.87 8.05a7.72 7.72 0 0 1-4.26 1.42 5.13 5.13 0 0 1-.1-10.26 6.84 6.84 0 0 1 4.16 1.42v-3.73a9.61 9.61 0 0 0-4.68-1.05c-5.42 0-8.84 3.74-8.84 8.47s3.37 8.52 8.89 8.52a10.24 10.24 0 0 0 4.84-1.05v-3.74zm12.34 4.68c-5.31 0-8.74-3.74-8.74-8.53s3.42-8.47 8.74-8.47 8.73 3.73 8.73 8.47-3.42 8.53-8.73 8.53zm0-3.32c2.53 0 4.42-2 4.42-5.21s-1.89-5.16-4.42-5.16-4.42 1.95-4.42 5.16 1.89 5.21 4.42 5.21zm31.49-13.31h-4.84l-4.16 8.63-4.12-8.62h-4.95v16.26h3.68v-11.1l5.31 11.1 5.26-11.05v11.05h3.74v-16.26zm30.61 0h-4.16l-6.1 16.26h4.1l1.1-3.32h5.89l1.11 3.32h4.21zm-2.11 3.89l1.95 5.94h-3.9zm27.47-3.89h-3.79v10.68l-6.89-10.68h-4.21V118h3.8v-10.67l6.89 10.68h4.21v-16.26zM42.28 85.49h-8.26V61.02L22.26 85.48 10.5 61.02v24.46h-8V48.9h10.4l9.45 19.76 9.51-19.76h10.4v36.59zm17.15 0h25v-7H68.35v-8.15h12.7v-6.8h-12.7v-7.63h14.7l1.57-7h-25.2V85.5zm68.58 0h-9.66l-8-14.43H108v14.43h-8.73V48.9h14.06c9 0 13 4.39 13 11 0 5.17-2.4 8.67-7.37 10zm-10.72-25.2c0-3-1.93-4.65-5.59-4.65h-3.76V65h3.76c3.65 0 5.58-1.57 5.58-4.71zm52.79 25.2h-9.67l-8-14.43h-2.35v14.43h-8.73V48.9h14.02c9 0 13 4.39 13 11 0 5.17-2.4 8.67-7.37 10zm-10.73-25.2c0-3-1.93-4.65-5.59-4.65H150V65h3.76c3.67 0 5.59-1.57 5.59-4.71zm24 25.2h8.88V48.9h-8.88v36.59zm26.24 0h24.62v-7.32h-15.73V48.9h-8.89v36.59zm37.37 0h24.62v-7.32h-15.73V48.9h-8.88v36.59z"/><path class="cls-2" d="M374.92 82.53a3 3 0 1 1 3 3 3 3 0 0 1-3-3m.57 0a2.44 2.44 0 1 0 2.45-2.33 2.4 2.4 0 0 0-2.45 2.33"/><path class="cls-2" d="M379.43 84.24h-.57l-1-1.52h-.51v1.52h-.49v-3.29h1.45a1.59 1.59 0 0 1 .82.16.78.78 0 0 1 .37.7.91.91 0 0 1-1.07.91zm-1.57-2c.48 0 1.13.09 1.13-.51 0-.43-.38-.47-.82-.47h-.82v1h.55z"/><path class="cls-1" d="M315.27 31.51a6.18 6.18 0 0 0-6.81 0l.55 1.1a18 18 0 0 1 5.66 0z"/><path class="cls-1" d="M369.05 60.06c-2.27-3.22-3-6.33-6.26-9.81 4.59-.72 7.68-2.75 9.23-6.1a10.31 10.31 0 0 0-.13-9.23c-3.27-6.33-12.34-9.23-19.38-10.55-7.8-1.46-11-3.35-12.22-7.21a4.6 4.6 0 0 1 .66-3.59c2-2.65 7.74-2.34 8.19-2.36 1.78.09 3 1.19 4.7 2.94 2 2 4.49 4.51 8.8 4.51 2.63 0 5.73-1 9-4.36a33.13 33.13 0 0 0 4.87-7.26h-28c-5.23 0-8.9 1.36-10.92 4.06a8.77 8.77 0 0 0-1.31 7.23c2 6.36 7.6 8.64 15.44 10.12 8.65 1.62 14.49 4.59 16.44 8.36a6.07 6.07 0 0 1 0 5.57c-1.41 3.06-5.24 4.33-11.72 3.89a30.73 30.73 0 0 1-19.7-9.25 71 71 0 0 1-8.89-13c-.11-.21-.83-1.49-1.7-3.12l4.36-.08a10.47 10.47 0 0 0-2.16-4.58 10.62 10.62 0 0 0 2.41-6.67C330.5-.22 320.55-.08 317.17.03c2.32 3.64 3.31 7 2.21 7.73s-3.64-1.1-7.85-1.1-6.75 1.81-7.85 1.1-.11-4.09 2.21-7.73c-3.38-.11-13.33-.24-13.59 9.54a10.78 10.78 0 0 0 2.61 6.82 6.39 6.39 0 0 0-2.24 4.44l3.68.41c-1.91 5.62-4.42 13.56-5.82 18.79a17.67 17.67 0 0 0 3.25 15.95 10.52 10.52 0 0 0-.86 7.29c3.13 13.8 1.55 15.31.32 22.2h12.33c.19-1.42 1.47-11 1.7-16.78 2.7 2.43 5.45 4.86 7.73 6.74a12.19 12.19 0 0 0 8.75 3.17 66.13 66.13 0 0 0 8.43-.71s.34-4.59.63-8.61l2.34-.19.26 3 3.89-.34c-1.75 6.69-5.35 11.17-6.86 13.71h13.46a78.11 78.11 0 0 0 5-9.79 8.07 8.07 0 0 0 8.31-1.29c-.64 4.72-3.39 9.7-4 11.08h15.21c-.11-2.33-.84-5.43 4.49-20.92a14.93 14.93 0 0 1-5.86-4.48zm-.24-48.82c-1.52 1.62-3.68 3.28-6.17 3.28s-4-1.45-5.84-3.28h12zm-66.89 70.11h-3.57c2.17-9.76-2.43-19.33-1.38-22 1 .89 5.47 5 6.2 5.65.18 3.02-.57 10.77-1.25 16.32zm41.59 0h-3.57a38.77 38.77 0 0 0 3.75-9.92l2.32-.2a10.22 10.22 0 0 0 1.42 2 70.45 70.45 0 0 1-3.93 8.09zm9.74-9.25a5.5 5.5 0 0 1-3.9-3.56c1.17.34 6.36 1.28 7.83 2a3.88 3.88 0 0 1-3.93 1.53zm13 9.25h-4.61c1-2.79 2.25-6.92 1.64-9.82-.94-4.45-5.72-5.45-9.93-6.33-2.42-.51-5.08-1.06-6.8-2.09-2.91-1.74-3.06-6-2-8.46h-4.37c-1.49 6.44 1.71 10.78 4.63 12.23v.26l-5.6.49-.25-3-10.35.81a20.33 20.33 0 0 0 .69-5h-4.17c0 3.9-1.84 8.11-3.35 9.75l6.84-.55c-.13 1.86-.25 3.43-.33 4.54a29.5 29.5 0 0 1-6.64.12 7.83 7.83 0 0 1-5.7-4.62c-1.15-2.87-.49-6.43 1.9-10.36l-3.17-2.81c-2.58 4-3.44 7.4-3.46 10.12-2.57-2.29-10.6-9.64-11.62-10.56-4.83-4.3-6.51-9.37-5-15.07 1.56-5.81 4.59-15.27 6.47-20.65.93-2.74 1-3 1.37-3.94a7.54 7.54 0 0 1-6-6.87c0-2.61 1.94-5.06 3.93-5.29a6.93 6.93 0 0 0-.24 5.17 4.34 4.34 0 0 0 3.85 2.54c1.42 0 3.95-1.15 7.52-1.15 3.58 0 6.1 1.15 7.52 1.15a4.34 4.34 0 0 0 3.85-2.54 6.93 6.93 0 0 0-.24-5.17c2 .29 3.93 2.73 3.93 5.29 0 2.34-1.63 5.84-5.22 6h-1.8c-6 .11-6.3 4.88-5.19 9.52a4.24 4.24 0 0 1-.15 2.44h-7.75l1.33 2.68a21.93 21.93 0 0 1 8.26 0l1.56-2.69-.63-2.2 3.9-5.61c1.16 2.31 3.22 6.06 3.34 6.27 2.73 5 3.92 9.66 3.55 13.75a13.62 13.62 0 0 1-1 4.18l3.24 2.88a18.14 18.14 0 0 0 2-8.91c.59.73 1.18 1.42 1.77 2.06a35 35 0 0 0 20.32 10.33c5.62.9 7.67 5.37 9.16 8.19 2.22 4.19 3.3 5.6 6.63 8.09-.42 1.28-3.09 9.49-3.61 14.8zm-47-63.74a3.32 3.32 0 0 1-3.42 3.77 3.32 3.32 0 0 1 3.52-3.8z"/><path class="cls-1" d="M308.26 21.64a3.85 3.85 0 0 1-4-4.36 3.85 3.85 0 0 1 4 4.36z"/></svg>