<svg xmlns="http://www.w3.org/2000/svg" width="222" height="40" viewBox="0 0 222 40">
  <defs>
    <linearGradient id="masthead-logo-ramsey-a" x1="4.952%" x2="63.663%" y1="48.488%" y2="51.706%">
      <stop offset="0%" stop-color="#0073B9"/>
      <stop offset="100%" stop-color="#0091D9"/>
    </linearGradient>
  </defs>
  <g fill="none" fill-rule="evenodd">
    <g fill="#0073B9">
      <path d="M39.8604883,4.10977918e-11 L39.8604883,39.8604883 L0,39.8604883 L0,4.10977918e-11 L39.8604883,4.10977918e-11 Z M26.2465811,23.4133865 L19.7897359,23.4133865 L23.9252616,30.4545757 L30.6060455,30.4545757 L26.2465811,23.4133865 Z M17.2457507,23.4144384 L11.2049493,23.4144384 L11.2049493,28.3828822 L17.2457507,28.3828822 L17.2457507,23.4144384 Z M11.2049767,9.47893481 L11.2049767,21.8168632 L20.6973094,21.8168632 L20.9832021,21.815992 C23.7783076,21.7986529 24.6778135,21.5250441 25.3834081,21.2242152 C27.9134421,20.1598848 28.6721749,17.2893761 28.6721749,15.6484527 C28.6721749,14.0210928 27.9134421,11.1516913 25.384515,10.0724132 C24.6768668,9.76289932 23.0978466,9.5068469 21.0274172,9.48201544 L20.696479,9.4800421 L11.2049767,9.47893481 Z"/>
      <path d="M19.8798929,13.4004872 C20.9051927,13.4090683 22.6609924,13.5527321 22.6609924,15.6038864 L22.6609924,15.6038864 L22.6609924,15.6634003 L22.6560845,15.8472549 C22.5489163,17.8112469 20.7128185,17.8662052 19.7448098,17.8374578 L19.7448098,17.8374578 L17.2460555,17.8374578 L17.2460555,13.4002103 L19.8798929,13.4004872 Z"/>
    </g>
    <path fill="url(#masthead-logo-ramsey-a)" d="M153.675148,4.98256104 C158.43839,4.98256104 162.195125,6.21501947 165.28486,8.54868627 L165.638428,8.82283513 L161.61594,14.4721777 C158.958632,12.6174361 156.05228,11.6255003 153.485045,11.6255003 C151.620888,11.6255003 150.667432,12.383656 150.584606,13.3409461 L150.578693,13.4789962 L150.578693,13.5666054 C150.578693,14.8799136 151.576532,15.4636983 155.597774,16.3688554 C162.14316,17.7848864 166.264429,19.8740367 166.426662,25.0545273 L166.431635,25.3755833 L166.431635,25.4631925 C166.431635,31.3595848 161.733821,34.8778381 154.673403,34.8778381 C149.713176,34.8912897 144.972346,33.3825777 141.439829,30.4270209 L141.066013,30.1048212 L141.067258,30.1035755 L145.543008,24.7751901 C148.405362,27.0376675 151.604757,28.2500796 154.966445,28.2500796 C157.030594,28.2500796 158.181785,27.5689381 158.277986,26.4232247 L158.284552,26.2641319 L158.284552,26.179014 C158.284552,24.9811341 157.330296,24.3242724 153.381275,23.4041678 C147.303989,22.0292754 142.59799,20.3322336 142.422567,14.6574398 L142.417497,14.3256087 L142.417497,14.2379994 C142.417497,8.86684732 146.688614,4.98256104 153.675148,4.98256104 Z M116.553412,5.47844593 L123.496779,16.6749895 L130.425619,5.47844593 L138.937552,5.47844593 L138.937552,34.3948919 L130.923709,34.3948919 L130.923709,17.7835993 L123.496779,29.1105186 L123.320373,29.1105186 L115.937026,17.8716237 L115.937026,34.3948919 L110.976055,34.3948919 L108.040233,27.5642779 L108.040233,5.47844593 L116.553412,5.47844593 Z M94.7558956,5.27486867 L107.130099,34.3947673 L98.5002832,34.3947673 L96.3854788,29.2274832 L85.1709943,29.2274832 L83.1010179,34.3947673 L80.7243006,34.3947673 L76.9516875,28.9069414 L86.9910967,5.27486867 L94.7558956,5.27486867 Z M200.719118,5.47852901 L206.693702,16.0182108 L212.711868,5.47852901 L221.723966,5.47852901 L210.672191,23.447142 L210.672191,34.394975 L202.584048,34.394975 L202.584048,23.5787635 L191.531028,5.47852901 L200.719118,5.47852901 Z M187.493473,5.47832136 L191.632597,12.2956487 L177.17555,12.2956487 L177.17555,16.674865 L189.931621,16.674865 L189.931621,22.9951863 L177.17555,22.9951863 L177.17555,27.5786856 L192.01488,27.5786856 L192.01488,34.3947673 L169.205288,34.3947673 L169.205288,5.47832136 L187.493473,5.47832136 Z M63.5654084,5.47848741 C68.0121022,5.47848741 71.0803333,6.63235512 73.0320147,8.61622677 C74.6499127,10.1841622 75.5126074,12.2774646 75.594832,14.924257 L75.6013258,15.3467754 L75.6013258,15.4335541 C75.6013258,19.7223427 73.3789589,22.6110611 69.951939,24.1667208 L69.6271573,24.3086605 L76.5705245,34.3804011 L67.2633081,34.3804011 L61.4070211,25.6223838 L57.8842833,25.6223838 L57.8842833,34.3804011 L49.8256104,34.3804011 L49.8256104,5.47848741 L63.5654084,5.47848741 Z M90.8081219,14.7765264 L87.5344289,22.9951863 L94.0515149,22.9951863 L90.8081219,14.7765264 Z M63.1540699,12.4124887 L57.8842833,12.4124887 L57.8842833,19.3460747 L63.1984833,19.3460747 L63.1984833,19.360607 C65.8483193,19.360607 67.4038826,18.1223759 67.508012,16.1452047 L67.513598,15.93056 L67.513598,15.8425357 C67.513598,13.5800582 65.8545454,12.4124887 63.1540699,12.4124887 Z"/>
  </g>
</svg>
