<svg width="299" height="168" viewBox="0 0 299 168" fill="none" xmlns="http://www.w3.org/2000/svg">
<path fill-rule="evenodd" clip-rule="evenodd" d="M13.0521 2.52263C12.1563 8.67717 11.2606 14.8317 10.4928 20.9863C22.0094 20.9863 33.5259 20.9863 45.0424 20.9863C29.943 39.4499 14.9715 57.9135 0 76.5028C32.1183 86.8022 61.8053 84.039 89.7009 70.3482C108.639 85.1694 128.601 81.2757 149.203 67.7106C150.738 58.7928 152.274 49.875 153.81 40.9571C134.615 60.6768 120.923 64.4449 109.663 61.0536C131.672 51.0054 156.625 22.8703 139.222 6.91873C112.862 -13.8058 71.1465 14.5805 79.0801 58.1647C60.1418 62.8121 43.3789 65.7009 34.9335 61.6816C51.3125 41.962 67.6916 22.3679 83.9427 2.64823C60.5257 2.52263 36.8529 2.52263 13.0521 2.52263ZM110.175 95.9712C106.336 95.9712 103.265 97.2273 101.217 99.7393C99.6819 97.2273 96.7388 95.9712 93.2838 95.9712C90.2128 95.9712 87.6535 96.8505 85.7341 98.7345L85.8621 96.2224H80.4877L78.6962 119.333H84.3265L85.3502 107.401C85.7341 102.879 87.9095 100.744 91.8763 100.744C94.9473 100.744 96.6108 102.126 96.9947 104.889C97.1227 105.517 97.1227 106.145 97.1227 106.773L96.099 119.459H101.729L102.753 107.401C103.137 102.879 105.44 100.87 109.279 100.87C112.35 100.87 114.014 102.251 114.397 105.015C114.269 105.391 114.269 106.019 114.269 106.647L113.246 119.333H118.876L119.9 106.522C120.028 105.517 120.028 104.512 119.772 103.633C119.132 98.6089 115.421 95.9712 110.175 95.9712ZM134.871 119.585C143.189 119.585 148.307 113.807 147.411 106.019C146.644 99.8649 141.525 95.8456 134.487 95.8456C126.17 95.8456 120.923 101.623 121.947 109.411C122.587 115.565 127.705 119.585 134.871 119.585ZM134.487 114.937C130.393 114.937 127.833 112.802 127.45 109.16C126.81 104.01 129.881 100.493 134.615 100.493C138.71 100.493 141.269 102.628 141.781 106.271C142.421 111.42 139.222 114.937 134.487 114.937ZM155.345 99.2369L155.601 96.2224H150.227L148.435 119.333H154.065L154.961 107.904C155.345 103.131 158.032 100.995 162.383 100.995C162.895 100.995 163.279 101.121 163.791 101.121L164.174 95.9712C160.208 95.9712 157.265 96.7249 155.345 99.2369ZM172.364 100.619H178.89L179.274 96.3481H172.748L173.132 91.0727H167.501L167.118 96.3481H163.279L162.895 100.619H166.862L165.966 111.546C165.966 112.3 165.966 112.802 166.094 113.43C166.606 117.324 169.677 119.71 173.772 119.71C175.691 119.71 177.866 119.333 179.274 118.329L177.866 114.309C176.971 114.937 175.947 115.189 174.795 115.189C172.748 115.189 171.852 114.184 171.596 112.551C171.468 112.3 171.468 111.923 171.468 111.546L172.364 100.619ZM199.748 96.2224L199.492 99.9905C197.444 97.1017 193.989 95.8456 190.407 95.8456C182.601 95.8456 177.61 101.498 178.378 108.532C179.146 114.435 184.136 118.203 190.407 118.203C193.606 118.203 196.165 117.198 197.956 115.565L197.828 116.696C197.444 121.092 195.269 123.353 190.023 123.353C186.44 123.353 182.985 122.348 181.065 120.715L178.634 124.86C181.705 126.87 185.672 128 190.279 128C198.468 128 202.947 124.483 203.587 115.817L205.122 96.2224H199.748ZM191.174 113.681C187.207 113.681 184.52 111.672 184.136 108.406C183.497 103.759 186.568 100.493 191.43 100.493C195.397 100.493 197.956 102.503 198.468 105.768C198.98 110.416 195.909 113.681 191.174 113.681ZM227.003 96.2224L226.748 99.6137C224.828 97.1017 221.885 95.9712 218.046 95.9712C210.368 95.9712 205.25 101.623 206.274 109.536C207.169 115.942 212.288 119.71 218.174 119.71C221.245 119.71 223.932 118.705 225.724 117.073L225.468 119.459H230.842L232.634 96.3481L227.003 96.2224ZM219.07 114.937C214.975 114.937 212.416 112.802 211.904 109.16C211.264 104.01 214.335 100.493 219.07 100.493C223.165 100.493 225.596 102.628 226.108 106.271C226.748 111.42 223.804 114.937 219.07 114.937ZM255.027 96.2224L254.771 99.9905C252.852 97.1017 249.397 95.8456 245.814 95.8456C238.008 95.8456 232.89 101.498 233.785 108.532C234.553 114.435 239.544 118.203 245.814 118.203C249.013 118.203 251.572 117.198 253.363 115.565L253.236 116.696C252.98 121.092 250.676 123.353 245.43 123.353C241.847 123.353 238.392 122.348 236.473 120.715L234.041 124.86C237.112 126.87 241.079 128 245.686 128C253.875 128 258.354 124.483 258.994 115.817L260.529 96.2224H255.027ZM246.454 113.681C242.487 113.681 239.8 111.672 239.416 108.406C238.776 103.759 241.847 100.493 246.71 100.493C250.676 100.493 253.236 102.503 253.747 105.768C254.259 110.416 251.188 113.681 246.454 113.681ZM285.994 106.019C285.226 99.7393 280.235 95.8456 273.709 95.8456C265.648 95.8456 260.529 101.498 261.553 109.411C262.321 115.565 267.439 119.585 274.733 119.585C278.444 119.585 281.899 118.58 284.202 116.319L281.387 112.551C279.852 114.058 277.548 114.937 274.733 114.937C270.126 114.937 267.695 112.928 267.055 109.285H286.122C286.122 108.406 286.122 107.276 285.994 106.019ZM273.965 100.242C277.676 100.242 280.491 102.251 280.875 105.768H267.055C267.695 102.377 270.126 100.242 273.965 100.242ZM124.506 19.479C109.663 10.8124 94.0516 32.6673 98.4023 50.503C119.9 39.1987 132.056 24.5031 124.506 19.479ZM187.08 3.02504C179.914 3.15064 172.748 3.27625 165.582 3.40185C162.511 28.1456 159.44 52.7638 156.241 77.382C163.407 77.382 170.573 77.382 177.738 77.382C179.914 61.9328 182.089 46.3581 184.264 30.9089C190.918 22.1167 201.411 19.6046 214.335 21.1119C217.534 14.5805 220.861 7.92356 224.06 1.3922C206.018 -2.12468 193.35 5.03469 185.288 20.9863C185.928 14.9573 186.44 8.92838 187.08 3.02504ZM261.169 0.261775C284.202 0.261775 301.093 18.3486 298.79 40.7059C296.614 63.0633 276.013 81.0245 252.852 81.0245C229.819 81.0245 213.056 62.9377 215.231 40.7059C217.534 18.3486 238.008 0.261775 261.169 0.261775ZM258.994 19.3534C269.998 19.3534 278.06 28.8993 276.908 40.7059C275.885 52.5126 266.032 62.0584 255.027 62.0584C244.022 62.0584 235.961 52.5126 237.112 40.7059C238.264 28.8993 247.989 19.3534 258.994 19.3534Z" fill="white"/>
<path d="M170.034 161.996C169.896 162.002 169.759 161.978 169.63 161.926C169.502 161.874 169.386 161.795 169.291 161.694C169.193 161.592 169.117 161.47 169.067 161.337C169.018 161.204 168.995 161.062 169.001 160.921V143.335C168.995 143.194 169.018 143.052 169.068 142.919C169.118 142.787 169.194 142.666 169.291 142.564C169.495 142.377 169.758 142.269 170.034 142.261C170.169 142.261 170.302 142.29 170.426 142.344C170.549 142.399 170.66 142.479 170.751 142.578C170.845 142.68 170.918 142.8 170.965 142.93C171.013 143.06 171.034 143.199 171.028 143.337V160.922C171.034 161.065 171.011 161.206 170.961 161.339C170.912 161.473 170.835 161.594 170.738 161.697C170.652 161.799 170.544 161.88 170.422 161.933C170.299 161.985 170.166 162.007 170.034 161.998L170.034 161.996ZM241.776 161.996C241.643 162.006 241.51 161.984 241.388 161.931C241.265 161.879 241.157 161.798 241.072 161.696C240.974 161.593 240.899 161.471 240.849 161.338C240.8 161.205 240.777 161.063 240.784 160.921V148.106C240.774 147.964 240.796 147.821 240.847 147.687C240.898 147.554 240.978 147.434 241.08 147.334C241.165 147.232 241.273 147.151 241.395 147.098C241.518 147.046 241.65 147.023 241.783 147.032C241.921 147.023 242.06 147.045 242.189 147.097C242.318 147.15 242.434 147.231 242.527 147.334C242.715 147.547 242.819 147.821 242.82 148.106V160.921C242.812 161.204 242.709 161.477 242.529 161.695C242.435 161.798 242.32 161.879 242.191 161.931C242.062 161.983 241.923 162.005 241.785 161.996L241.776 161.996ZM241.776 144.968C241.582 144.975 241.39 144.94 241.211 144.866C241.033 144.791 240.872 144.679 240.74 144.537C240.478 144.241 240.331 143.86 240.327 143.463C240.322 143.268 240.36 143.075 240.438 142.896C240.517 142.718 240.633 142.559 240.78 142.432C240.903 142.291 241.056 142.179 241.227 142.104C241.399 142.029 241.584 141.994 241.771 142.001C241.96 141.996 242.148 142.031 242.324 142.102C242.499 142.173 242.658 142.28 242.791 142.415C243.065 142.694 243.218 143.071 243.218 143.463C243.217 143.858 243.074 144.239 242.816 144.537C242.682 144.676 242.521 144.786 242.343 144.86C242.165 144.934 241.974 144.971 241.781 144.968H241.776ZM254.513 149.699C254.764 149.69 255.002 149.582 255.174 149.398C255.341 149.175 255.428 148.902 255.422 148.623C255.431 148.488 255.41 148.351 255.36 148.225C255.31 148.099 255.233 147.985 255.133 147.893C255.029 147.792 254.905 147.714 254.77 147.662C254.635 147.61 254.491 147.587 254.346 147.592H250.966C250.08 147.572 249.206 147.811 248.452 148.279C247.709 148.734 247.106 149.388 246.711 150.168C246.288 150.991 246.075 151.908 246.091 152.835V160.921C246.098 161.204 246.2 161.477 246.381 161.695C246.475 161.798 246.59 161.879 246.719 161.931C246.848 161.983 246.987 162.005 247.126 161.996C247.264 162.001 247.401 161.977 247.53 161.925C247.658 161.873 247.774 161.795 247.87 161.695C248.049 161.477 248.151 161.204 248.158 160.921V152.837C248.124 152.005 248.406 151.19 248.945 150.558C249.195 150.268 249.507 150.04 249.859 149.891C250.21 149.742 250.591 149.676 250.971 149.699H254.513ZM213.04 159.888C213.166 159.883 213.292 159.908 213.406 159.96C213.521 160.012 213.622 160.091 213.702 160.189C213.882 160.407 213.984 160.68 213.992 160.963C213.99 161.102 213.959 161.238 213.903 161.363C213.846 161.489 213.764 161.601 213.662 161.694C213.557 161.794 213.434 161.873 213.299 161.925C213.163 161.977 213.019 162 212.875 161.995H206.717C204.07 161.995 202.334 160.36 202.334 157.435V152.15C202.334 149.439 203.822 147.807 206.137 147.591H210.356C212.677 147.806 214.161 149.438 214.161 152.15V154.602C214.159 154.884 214.101 155.164 213.988 155.423C213.876 155.682 213.712 155.915 213.507 156.108C213.302 156.301 213.06 156.45 212.795 156.546C212.531 156.641 212.25 156.681 211.969 156.664H204.36V157.438C204.36 159.201 205.435 159.889 206.718 159.889L213.04 159.888ZM209.815 149.699H206.721C206.401 149.669 206.078 149.711 205.776 149.823C205.474 149.934 205.201 150.111 204.975 150.342C204.75 150.572 204.578 150.85 204.472 151.156C204.366 151.461 204.329 151.787 204.363 152.108V154.56H212.137V152.106C212.137 150.387 211.102 149.696 209.816 149.696L209.815 149.699ZM259.568 159.888C259.435 159.879 259.302 159.901 259.18 159.953C259.058 160.006 258.949 160.087 258.864 160.189C258.697 160.412 258.61 160.685 258.617 160.963C258.611 161.099 258.634 161.234 258.684 161.36C258.734 161.486 258.81 161.599 258.907 161.694C259.01 161.795 259.134 161.873 259.268 161.925C259.403 161.977 259.547 162 259.692 161.995H265.729C269.576 161.995 270.776 157.35 267.135 155.457L261.221 152.241C259.692 151.509 260.186 149.7 261.926 149.7H268.17C268.296 149.701 268.419 149.674 268.533 149.622C268.647 149.57 268.749 149.494 268.832 149.4C268.929 149.297 269.005 149.175 269.055 149.042C269.105 148.909 269.128 148.767 269.122 148.625C269.124 148.486 269.096 148.349 269.039 148.222C268.982 148.096 268.897 147.984 268.792 147.895C268.69 147.791 268.567 147.711 268.431 147.659C268.295 147.607 268.15 147.585 268.005 147.594H261.926C258.08 147.594 256.673 152.239 260.561 154.129L266.267 157.226C267.756 158 267.468 159.892 265.729 159.892L259.568 159.888ZM181.077 147.592H179.462C178.589 147.57 177.729 147.802 176.983 148.26C176.237 148.717 175.638 149.38 175.256 150.171C174.832 150.994 174.618 151.91 174.636 152.837V160.921C174.629 161.2 174.717 161.472 174.885 161.695C175.085 161.888 175.351 161.996 175.629 161.996C175.906 161.996 176.173 161.888 176.373 161.695C176.553 161.477 176.654 161.204 176.661 160.921V152.837C176.629 152.005 176.91 151.191 177.448 150.558C177.698 150.268 178.01 150.04 178.361 149.891C178.712 149.742 179.093 149.676 179.473 149.699H181.872C182.253 149.677 182.633 149.743 182.985 149.892C183.336 150.041 183.649 150.268 183.899 150.558C184.438 151.19 184.718 152.005 184.684 152.837V160.921C184.691 161.204 184.794 161.477 184.975 161.695C185.175 161.888 185.442 161.996 185.719 161.996C185.996 161.996 186.263 161.888 186.463 161.695C186.63 161.472 186.717 161.199 186.71 160.921V152.837C186.727 151.91 186.513 150.994 186.09 150.171C185.708 149.38 185.108 148.716 184.361 148.259C183.615 147.801 182.753 147.57 181.88 147.592H181.077ZM225.94 149.699C226.072 149.698 226.202 149.672 226.323 149.62C226.444 149.568 226.553 149.493 226.644 149.398C226.811 149.175 226.899 148.902 226.892 148.623C226.906 148.485 226.884 148.345 226.829 148.217C226.773 148.089 226.687 147.978 226.576 147.893C226.475 147.789 226.352 147.709 226.216 147.657C226.081 147.605 225.936 147.583 225.791 147.592H222.391C221.515 147.575 220.653 147.814 219.909 148.279C219.166 148.734 218.563 149.388 218.169 150.168C217.745 150.991 217.532 151.908 217.548 152.835V160.921C217.542 161.063 217.565 161.204 217.615 161.337C217.665 161.471 217.741 161.592 217.838 161.695C217.923 161.798 218.031 161.879 218.153 161.931C218.275 161.983 218.408 162.006 218.54 161.996C218.679 162.005 218.818 161.983 218.947 161.931C219.076 161.879 219.191 161.798 219.285 161.695C219.382 161.592 219.459 161.471 219.509 161.338C219.559 161.205 219.581 161.063 219.575 160.921V152.837C219.541 152.005 219.822 151.19 220.36 150.558C220.613 150.272 220.926 150.046 221.277 149.897C221.628 149.749 222.007 149.681 222.387 149.699H225.94ZM236.328 144.367C236.454 144.372 236.579 144.347 236.694 144.294C236.809 144.242 236.91 144.163 236.989 144.065C237.177 143.851 237.28 143.575 237.279 143.29C237.268 143.014 237.149 142.752 236.949 142.562C236.845 142.46 236.722 142.381 236.587 142.329C236.451 142.277 236.307 142.254 236.162 142.259H234.592C233.72 142.263 232.864 142.5 232.112 142.946C231.378 143.414 230.778 144.066 230.371 144.839C229.954 145.68 229.742 146.608 229.753 147.547V160.921C229.76 161.204 229.861 161.477 230.041 161.695C230.132 161.802 230.247 161.885 230.377 161.937C230.506 161.989 230.646 162.01 230.785 161.996C230.918 162.005 231.051 161.983 231.173 161.931C231.296 161.878 231.404 161.797 231.489 161.695C231.587 161.592 231.663 161.471 231.713 161.337C231.763 161.204 231.785 161.063 231.779 160.921V149.699H236.368C236.619 149.684 236.855 149.574 237.027 149.39C237.2 149.206 237.296 148.962 237.296 148.71C237.296 148.457 237.2 148.213 237.027 148.029C236.855 147.846 236.619 147.735 236.368 147.721H231.781V147.547C231.761 146.716 232.043 145.905 232.574 145.268C232.827 144.979 233.139 144.749 233.489 144.593C233.839 144.437 234.218 144.36 234.601 144.366L236.328 144.367ZM280.039 159.888C280.165 159.883 280.29 159.908 280.405 159.96C280.52 160.012 280.621 160.091 280.7 160.189C280.881 160.407 280.984 160.68 280.991 160.963C280.989 161.102 280.958 161.238 280.901 161.364C280.844 161.489 280.762 161.602 280.659 161.694C280.555 161.794 280.432 161.873 280.296 161.925C280.161 161.977 280.017 162 279.872 161.995H277.227C276.34 162.015 275.467 161.776 274.712 161.307C274.002 160.827 273.42 160.179 273.017 159.419C272.593 158.58 272.38 157.65 272.396 156.71V143.335C272.39 143.056 272.478 142.783 272.646 142.561C272.787 142.405 272.973 142.297 273.178 142.253C273.383 142.209 273.597 142.23 273.789 142.313C273.984 142.401 274.148 142.545 274.261 142.727C274.374 142.909 274.43 143.12 274.423 143.335V147.592H280.089C280.212 147.585 280.334 147.605 280.448 147.65C280.562 147.695 280.665 147.764 280.751 147.852C280.911 148.028 281 148.259 281 148.498C281 148.736 280.911 148.967 280.751 149.143C280.665 149.231 280.562 149.3 280.448 149.345C280.334 149.39 280.212 149.41 280.089 149.403H274.423V156.709C274.399 157.122 274.456 157.536 274.591 157.927C274.726 158.318 274.936 158.679 275.21 158.988C275.46 159.28 275.772 159.513 276.122 159.669C276.473 159.825 276.853 159.901 277.237 159.891L280.039 159.888ZM197.824 159.888C197.956 159.879 198.089 159.902 198.211 159.954C198.333 160.006 198.441 160.087 198.526 160.189C198.693 160.412 198.781 160.684 198.775 160.963C198.78 161.099 198.757 161.234 198.708 161.36C198.658 161.486 198.582 161.599 198.485 161.694C198.381 161.794 198.258 161.873 198.123 161.925C197.988 161.976 197.844 162 197.7 161.995H195.056C194.167 162.017 193.29 161.778 192.533 161.307C191.812 160.839 191.227 160.188 190.838 159.419C190.416 158.58 190.204 157.65 190.222 156.71V143.335C190.215 143.057 190.303 142.785 190.47 142.564C190.611 142.408 190.797 142.301 191.001 142.256C191.206 142.212 191.419 142.232 191.611 142.315C191.806 142.402 191.97 142.546 192.083 142.727C192.196 142.909 192.252 143.12 192.245 143.335V147.592H197.912C198.033 147.589 198.155 147.611 198.268 147.655C198.382 147.7 198.485 147.767 198.573 147.852C198.732 148.029 198.82 148.259 198.82 148.498C198.82 148.736 198.732 148.966 198.573 149.143C198.395 149.314 198.158 149.408 197.912 149.403H192.249V156.709C192.224 157.122 192.281 157.536 192.416 157.927C192.55 158.318 192.76 158.679 193.034 158.988C193.281 159.282 193.592 159.516 193.942 159.672C194.293 159.828 194.674 159.902 195.056 159.888H197.824Z" fill="white" stroke="white"/>
<path d="M144.655 162.871C143.778 162.871 142.991 162.659 142.294 162.235C141.597 161.8 141.04 161.218 140.624 160.488C140.219 159.747 140.011 158.918 140 158V149.759C140 149.524 140.062 149.341 140.186 149.212C140.32 149.071 140.5 149 140.725 149C140.939 149 141.107 149.071 141.231 149.212C141.366 149.341 141.434 149.524 141.434 149.759V154.806C141.805 154.276 142.288 153.853 142.884 153.535C143.48 153.206 144.143 153.041 144.874 153.041C145.728 153.041 146.493 153.259 147.168 153.694C147.842 154.118 148.371 154.7 148.753 155.441C149.146 156.182 149.343 157.018 149.343 157.947C149.343 158.888 149.135 159.729 148.719 160.471C148.314 161.212 147.758 161.8 147.049 162.235C146.352 162.659 145.554 162.871 144.655 162.871ZM144.655 161.529C145.284 161.529 145.846 161.371 146.341 161.053C146.847 160.735 147.241 160.312 147.522 159.782C147.814 159.241 147.96 158.629 147.96 157.947C147.96 157.276 147.814 156.671 147.522 156.129C147.241 155.588 146.847 155.165 146.341 154.859C145.846 154.541 145.284 154.382 144.655 154.382C144.048 154.382 143.491 154.541 142.985 154.859C142.49 155.165 142.102 155.588 141.821 156.129C141.54 156.671 141.4 157.276 141.4 157.947C141.4 158.629 141.54 159.241 141.821 159.782C142.102 160.312 142.49 160.735 142.985 161.053C143.491 161.371 144.048 161.529 144.655 161.529Z" fill="white"/>
<path d="M152.999 167C152.909 167 152.797 166.971 152.662 166.912C152.246 166.712 152.133 166.4 152.324 165.976L157.671 153.535C157.862 153.124 158.16 153.012 158.564 153.2C158.98 153.376 159.098 153.682 158.919 154.118L153.539 166.541C153.426 166.847 153.246 167 152.999 167ZM154.905 162.447C154.725 162.541 154.556 162.559 154.399 162.5C154.241 162.441 154.112 162.312 154.011 162.112L150.233 154.118C150.143 153.918 150.126 153.735 150.183 153.571C150.25 153.406 150.374 153.276 150.554 153.182C150.745 153.1 150.919 153.088 151.076 153.147C151.234 153.206 151.358 153.329 151.447 153.518L155.141 161.529C155.231 161.718 155.259 161.9 155.225 162.076C155.203 162.241 155.096 162.365 154.905 162.447Z" fill="white"/>
<path d="M144.655 162.871C143.778 162.871 142.991 162.659 142.294 162.235C141.597 161.8 141.04 161.218 140.624 160.488C140.219 159.747 140.011 158.918 140 158V149.759C140 149.524 140.062 149.341 140.186 149.212C140.32 149.071 140.5 149 140.725 149C140.939 149 141.107 149.071 141.231 149.212C141.366 149.341 141.434 149.524 141.434 149.759V154.806C141.805 154.276 142.288 153.853 142.884 153.535C143.48 153.206 144.143 153.041 144.874 153.041C145.728 153.041 146.493 153.259 147.168 153.694C147.842 154.118 148.371 154.7 148.753 155.441C149.146 156.182 149.343 157.018 149.343 157.947C149.343 158.888 149.135 159.729 148.719 160.471C148.314 161.212 147.758 161.8 147.049 162.235C146.352 162.659 145.554 162.871 144.655 162.871ZM144.655 161.529C145.284 161.529 145.846 161.371 146.341 161.053C146.847 160.735 147.241 160.312 147.522 159.782C147.814 159.241 147.96 158.629 147.96 157.947C147.96 157.276 147.814 156.671 147.522 156.129C147.241 155.588 146.847 155.165 146.341 154.859C145.846 154.541 145.284 154.382 144.655 154.382C144.048 154.382 143.491 154.541 142.985 154.859C142.49 155.165 142.102 155.588 141.821 156.129C141.54 156.671 141.4 157.276 141.4 157.947C141.4 158.629 141.54 159.241 141.821 159.782C142.102 160.312 142.49 160.735 142.985 161.053C143.491 161.371 144.048 161.529 144.655 161.529Z" stroke="white"/>
<path d="M152.999 167C152.909 167 152.797 166.971 152.662 166.912C152.246 166.712 152.133 166.4 152.324 165.976L157.671 153.535C157.862 153.124 158.16 153.012 158.564 153.2C158.98 153.376 159.098 153.682 158.919 154.118L153.539 166.541C153.426 166.847 153.246 167 152.999 167ZM154.905 162.447C154.725 162.541 154.556 162.559 154.399 162.5C154.241 162.441 154.112 162.312 154.011 162.112L150.233 154.118C150.143 153.918 150.126 153.735 150.183 153.571C150.25 153.406 150.374 153.276 150.554 153.182C150.745 153.1 150.919 153.088 151.076 153.147C151.234 153.206 151.358 153.329 151.447 153.518L155.141 161.529C155.231 161.718 155.259 161.9 155.225 162.076C155.203 162.241 155.096 162.365 154.905 162.447Z" stroke="white"/>
</svg>
